<svg width="182.8467" height="287.9922" viewBox="0 0 182.8467 287.9922" xmlns="http://www.w3.org/2000/svg" xmlns:xlink="http://www.w3.org/1999/xlink"><defs><clipPath id="clip-1"><rect x="0" y="0" width="182.8467" height="287.9922" fill="none" stroke="none" stroke-width="1"></rect></clipPath></defs><g clip-path="url(#clip-1)" id="Frame 1" fill="none" fill-rule="nonzero" stroke="none" stroke-width="none" stroke-linecap="butt" stroke-linejoin="miter" stroke-miterlimit="10" stroke-dasharray="" stroke-dashoffset="0" font-family="none" font-weight="none" font-size="none" text-anchor="none" style="mix-blend-mode: normal"><rect x="0" y="0" width="182.8467" height="287.9922" fill="none" stroke="none" stroke-width="1"></rect><path d="M49.7688,1.1938h81.9564c26.7835,0 48.4958,21.7123 48.4958,48.4958v188.613c0,26.7835 -21.7123,48.4958 -48.4958,48.4958h-81.9564c-26.7835,0 -48.4958,-21.7123 -48.4958,-48.4958v-188.613c0,-26.7835 21.7123,-48.4958 48.4958,-48.4958z" fill="#fff500" stroke="#000000" stroke-width="0"></path><path d="M74.6222,70.0929h14.1182c4.6138,0 8.3541,10.4095 8.3541,23.2503v90.4268c0,12.8408 -3.7403,23.2503 -8.3541,23.2503h-14.1182c-4.6138,0 -8.3541,-10.4095 -8.3541,-23.2503v-90.4268c0,-12.8408 3.7403,-23.2503 8.3541,-23.2503z" fill="#ff9900" stroke="#000000" stroke-width="0"></path><path d="M180.2209,49.6896v188.613c0,26.7835 -21.7123,48.4958 -48.4958,48.4958h-81.9564c-19.6297,0 -36.5354,-11.6627 -44.1659,-28.4369c6.6734,3.4595 14.2527,5.414 22.2885,5.414h81.9564c26.7835,0 48.4958,-21.7123 48.4958,-48.4958v-188.613c0,-7.1538 -1.549,-13.9458 -4.3298,-20.0589c15.5691,8.0711 26.2072,24.3341 26.2072,43.0818z" fill="#ffd600" stroke="#000000" stroke-width="0"></path></g></svg>